<svg class="icon" viewBox="0 0 1024 1024" xmlns="http://www.w3.org/2000/svg" width="200" height="200"><defs><style/></defs><path d="M502.648 415.492v85.94h24.592c33.345 0 50.001-14.501 50.001-43.485 0-28.313-16.485-42.454-49.486-42.454h-25.107zm330.74-111.485V64.002C833.388 28.642 804.732 0 769.386 0h-512.02c-35.343 0-64.001 28.641-64.001 64.002v240.005H73.978v400.009h119.387V960.02c0 35.345 28.657 64.002 64.002 64.002h512.02c35.344 0 64.001-28.656 64.001-64.002V704.016h118.226V304.007H833.388zm-64-224.005v224.005H257.376l-.007-224.005H769.39zM636.9 455.712c0 27.266-10 49.127-30 65.565-20.001 16.454-45.002 24.33-75.032 23.642h-29.219v92.814h-56.72V371.49h91.626c66.219 0 99.344 28.08 99.344 84.221zM226.28 576.716l-19.593 61.019h-61.54L242.6 371.494h66.697l95.565 266.24h-61.876l-19.937-61.018h-96.768zm287.103 415.306c-17.672 0-32.017-14.329-32.017-32s14.345-32.002 32.017-32.002 32 14.33 32 32.001-14.329 32.001-32 32.001zm256.005-96.002h-512.02l.006-192.003h512.011V896.02zm61.47-374.743c-19.985 16.454-45.003 24.33-75.018 23.642H726.62v92.814h-56.72V371.49h91.596c66.252 0 99.348 28.078 99.348 84.221-.001 27.266-9.987 49.127-29.988 65.565zm-79.143-105.785H726.62v85.94h24.562c33.345 0 50.034-14.501 50.034-43.485 0-28.313-16.501-42.455-49.501-42.455zm-476.448 1.892h-1.562c-.688 7.78-2.218 15.298-4.626 22.517l-30.43 92.987h70.995l-30.25-92.299c-1.954-5.845-3.328-13.58-4.126-23.204z"/></svg>