<svg class="icon" viewBox="0 0 1024 1024" xmlns="http://www.w3.org/2000/svg" width="200" height="200"><defs><style/></defs><path d="M915.797 196.864c17.067-39.168-10.602-67.307-50.133-51.05L138.027 444.8c-40.96 16.832-37.952 56.277 5.205 66.773l330.347 80.342-15.616-15.403 77.76 301.205a21.333 21.333 0 0 0 41.322-10.666l-77.781-301.184a21.333 21.333 0 0 0-15.595-15.403L153.28 470.123a24.299 24.299 0 0 1-6.187-2.134c1.942 1.323 4.139 4.416 4.523 9.323.363 4.907-1.344 8.32-3.072 9.92.576-.533 2.517-1.685 5.675-2.987L881.92 185.301a19.072 19.072 0 0 1 5.76-1.664 9.557 9.557 0 0 1-6.165-3.178 9.6 9.6 0 0 1-3.072-6.23c0 .768-.512 2.774-1.75 5.611L646.507 708.352a21.333 21.333 0 0 0 39.125 17.024l230.165-528.512z"/></svg>