<svg class="icon" viewBox="0 0 1024 1024" xmlns="http://www.w3.org/2000/svg" width="200" height="200"><defs><style/></defs><path d="M750.9 964.3c-41.678 0-75.674-35.43-75.674-78.95 0-43.417 33.996-78.745 75.673-78.745s75.674 35.328 75.674 78.745c0 43.52-33.997 78.95-75.674 78.95zm0-106.393c-13.722 0-24.474 12.083-24.474 27.546 0 15.462 10.752 27.75 24.473 27.75 13.312 0 24.474-12.697 24.474-27.75 0-14.95-11.162-27.546-24.474-27.546zM405.196 964.301c-42.087 0-75.367-34.611-75.674-78.746 0-43.622 33.997-78.95 75.674-78.95s75.673 35.328 75.673 78.745c0 43.52-33.996 78.95-75.673 78.95zm0-106.394c-13.722 0-24.474 12.083-24.474 27.546.103 15.36 10.855 27.75 24.474 27.75 13.517 0 24.473-12.39 24.473-27.75 0-15.258-10.956-27.546-24.473-27.546zm9.728-55.808c-61.235 0-109.363-48.435-125.85-126.157-2.97-14.028-19.149-100.761-38.093-201.83-26.93-143.462-63.692-339.968-67.481-354.509-1.946-3.891-9.421-8.499-14.541-8.499H85.3a25.6 25.6 0 0 1 0-51.2h83.66c26.112 0 52.02 17.818 62.874 43.315 5.12 18.637 33.177 167.936 69.427 361.472 18.841 100.66 35.02 186.88 37.888 200.704 10.752 51.2 37.171 82.74 71.168 85.3a21.709 21.709 0 0 1 4.505-.41h417.076a25.6 25.6 0 0 1 0 51.2H420.25a22.938 22.938 0 0 1-5.325.614z"/><path d="M745.574 703.488H327.168a25.6 25.6 0 0 1 0-51.2h418.406c29.082 0 33.383-7.578 41.984-22.938l4.404-7.168c6.86-11.468 47.308-108.032 74.035-171.827 17.715-42.393 33.382-79.974 40.448-95.641 7.475-20.685 8.806-38.708 2.867-47.514-2.867-4.096-7.782-8.5-20.48-8.5H253.747a25.6 25.6 0 0 1 0-51.2h635.085c26.726 0 48.435 10.65 62.566 30.618 16.18 24.167 16.794 56.116 2.458 95.642-7.68 17.306-23.142 54.477-40.653 96.358-41.574 99.43-69.53 165.581-77.414 178.688l-4.403 7.168c-13.21 23.348-31.437 47.514-85.812 47.514z"/><path d="M533.094 611.84h-1.33a26.42 26.42 0 0 1-18.126-8.909L407.142 478.618a25.6 25.6 0 1 1 38.912-33.383L535.04 549.07l213.197-202.547a25.6 25.6 0 1 1 35.123 37.273l-232.653 220.98a25.6 25.6 0 0 1-17.613 7.065z"/></svg>