<svg class="icon" viewBox="0 0 1024 1024" xmlns="http://www.w3.org/2000/svg" width="200" height="200"><defs><style/></defs><path d="M386.5 477H110.7c-47.5 0-86.2-38.7-86.2-86.2V115.1c0-47.5 38.7-86.2 86.2-86.2h275.7c47.5 0 86.2 38.7 86.2 86.2v275.7c-.1 47.6-38.7 86.2-86.1 86.2zM110.7 68.9c-25.5 0-46.2 20.7-46.2 46.2v275.7c0 25.5 20.7 46.2 46.2 46.2h275.7c25.4 0 46.1-20.8 46.2-46.3V115.1c0-25.5-20.7-46.2-46.2-46.2H110.7zM917.5 477H641.8c-47.5 0-86.2-38.7-86.2-86.2V115.1c0-47.5 38.7-86.2 86.2-86.2h275.7c47.5 0 86.2 38.7 86.2 86.2v275.7c0 47.6-38.6 86.2-86.2 86.2zM641.8 68.9c-25.5 0-46.2 20.7-46.2 46.2v275.7c0 25.5 20.7 46.2 46.2 46.2h275.7c25.5 0 46.2-20.7 46.2-46.2V115.1c0-25.5-20.7-46.2-46.2-46.2H641.8zM386.5 990.8H110.7c-47.5 0-86.2-38.7-86.2-86.2V628.8c0-47.5 38.7-86.2 86.2-86.2h275.7c47.5 0 86.2 38.7 86.2 86.2v275.7c-.1 47.6-38.7 86.3-86.1 86.3zM110.7 582.6c-25.5 0-46.2 20.7-46.2 46.2v275.7c0 25.5 20.7 46.2 46.2 46.2h275.7c25.4 0 46.1-20.8 46.2-46.3V628.8c0-25.5-20.7-46.2-46.2-46.2H110.7zm806.8 408.2H641.8c-47.5 0-86.2-38.7-86.2-86.2V628.8c0-47.5 38.7-86.2 86.2-86.2h275.7c47.5 0 86.2 38.7 86.2 86.2v275.7c0 47.6-38.6 86.3-86.2 86.3zM641.8 582.6c-25.5 0-46.2 20.7-46.2 46.2v275.7c0 25.5 20.7 46.2 46.2 46.2h275.7c25.5 0 46.2-20.7 46.2-46.2V628.8c0-25.5-20.7-46.2-46.2-46.2H641.8z"/></svg>