<svg class="icon" viewBox="0 0 1024 1024" xmlns="http://www.w3.org/2000/svg" width="200" height="200"><defs><style/></defs><path d="M644.267 343.467C699.733 352 750.933 384 785.067 422.4c40.533 46.933 70.4 108.8 78.933 172.8 6.4 38.4 2.133 74.667-2.133 110.933-12.8 23.467-51.2 78.934-123.734 136.534 2.134-4.267 4.267-6.4 4.267-10.667 25.6-51.2 49.067-98.133 55.467-153.6 6.4-57.6-4.267-119.467-27.734-168.533-12.8-27.734-32-51.2-55.466-70.4-8.534-34.134-32-66.134-70.4-96zm44.8 288c19.2-21.334 27.733-59.734 34.133-108.8 14.933 25.6 23.467 51.2 25.6 78.933 8.533 78.933-17.067 155.733-72.533 219.733-34.134 38.4-76.8 70.4-125.867 93.867-83.2 10.667-147.2-6.4-204.8-32 78.933 6.4 164.267-12.8 228.267-55.467 61.866-42.666 100.266-100.266 110.933-170.666 4.267-8.534 4.267-17.067 4.267-25.6zm-582.4-74.667c49.066 91.733 130.133 168.533 215.466 194.133 64 19.2 123.734 10.667 181.334-23.466h6.4c19.2 0 38.4-2.134 57.6-8.534 17.066-4.266 34.133-12.8 51.2-21.333-6.4 10.667-12.8 19.2-19.2 29.867-36.267 44.8-83.2 74.666-134.4 87.466-25.6 6.4-51.2 8.534-76.8 8.534-57.6-2.134-117.334-21.334-174.934-55.467-12.8-6.4-23.466-14.933-34.133-23.467-34.133-46.933-72.533-115.2-72.533-187.733zM326.4 625.067c19.2 36.266 49.067 61.866 89.6 83.2h-29.867c-83.2-8.534-151.466-51.2-192-121.6-29.866-51.2-46.933-115.2-49.066-187.734 0-25.6 0-49.066 4.266-74.666 27.734-76.8 72.534-121.6 130.134-145.067-27.734 42.667-46.934 89.6-57.6 138.667-14.934 64-14.934 123.733-2.134 177.066 17.067 57.6 51.2 102.4 106.667 130.134zm2.133-234.667c-32 36.267-38.4 81.067-38.4 128-32-64-32-155.733-2.133-224 25.6-53.333 66.133-102.4 121.6-138.667 38.4-23.466 76.8-38.4 117.333-49.066 83.2 10.666 157.867 38.4 183.467 51.2h-17.067c-59.733 0-117.333-2.134-172.8 17.066C465.067 194.133 416 224 381.867 266.667c-25.6 29.866-46.934 76.8-53.334 123.733zM864 320c40.533 55.467 49.067 157.867 49.067 189.867v6.4c-2.134-4.267-4.267-10.667-6.4-14.934-8.534-19.2-14.934-38.4-25.6-55.466-23.467-36.267-46.934-64-72.534-87.467-57.6-49.067-128-76.8-189.866-74.667-21.334 0-51.2 4.267-78.934 12.8-10.666-2.133-21.333-2.133-32-2.133-8.533 0-17.066 0-25.6 2.133-10.666 2.134-21.333 2.134-32 6.4-14.933 4.267-27.733 8.534-38.4 14.934 27.734-38.4 72.534-68.267 132.267-85.334 68.267-19.2 153.6-10.666 228.267 25.6 32 12.8 61.866 34.134 91.733 61.867z"/></svg>