<svg class="icon" viewBox="0 0 1024 1024" xmlns="http://www.w3.org/2000/svg" width="200" height="200"><defs><style/></defs><path d="M76.8 834.56H25.6V51.2c0-14.336 11.264-25.6 25.6-25.6h931.84c14.336 0 25.6 11.264 25.6 25.6v640c0 54.784-44.544 99.328-99.328 99.328v-51.2c27.136 0 48.128-20.992 48.128-48.128V76.8H76.8v757.76zm903.68 65.024H151.552c-14.336 0-25.6-11.264-25.6-25.6s11.264-25.6 25.6-25.6H980.48c14.336 0 25.6 11.264 25.6 25.6s-11.264 25.6-25.6 25.6z"/><path d="M980.48 1005.056H141.312C73.728 1002.496 20.48 944.64 20.48 873.472c0-68.608 50.688-128 115.712-135.168h777.216c14.336 0 25.6 11.264 25.6 25.6s-11.264 25.6-25.6 25.6h-773.12c-38.4 5.12-68.608 41.472-68.608 83.968 0 43.52 31.232 78.848 71.168 80.384H980.48c14.336 0 25.6 11.264 25.6 25.6s-11.264 25.6-25.6 25.6zM517.12 562.688c-84.48 0-153.6-69.12-153.6-153.6s69.12-153.6 153.6-153.6 153.6 69.12 153.6 153.6-69.12 153.6-153.6 153.6zm0-256c-56.32 0-102.4 46.08-102.4 102.4s46.08 102.4 102.4 102.4 102.4-46.08 102.4-102.4-46.08-102.4-102.4-102.4z"/><path d="M515.584 286.72c-14.336 0-25.6-11.264-25.6-25.6v-46.592c0-14.336 11.264-25.6 25.6-25.6s25.6 11.264 25.6 25.6v46.592c0 14.336-11.264 25.6-25.6 25.6zm-104.448 44.032c-6.656 0-13.312-2.56-18.432-7.68l-32.256-32.768c-9.728-10.24-9.728-26.112.512-36.352 10.24-9.728 26.112-9.728 36.352.512l32.256 32.768c9.728 10.24 9.728 26.112-.512 36.352-5.12 4.608-11.264 7.168-17.92 7.168zM368.64 436.224h-46.08c-14.336 0-25.6-11.264-25.6-25.6s11.264-25.6 25.6-25.6h46.08c14.336 0 25.6 11.264 25.6 25.6s-11.264 25.6-25.6 25.6zm11.264 136.704c-6.656 0-13.312-2.56-18.432-7.68-9.728-10.24-9.728-26.112.512-36.352l33.28-32.768c10.24-9.728 26.112-9.728 36.352.512 9.728 10.24 9.728 26.112-.512 36.352l-33.28 32.768c-5.12 4.608-11.264 7.168-17.92 7.168zm138.752 56.32c-14.336 0-25.6-11.264-25.6-25.6v-46.08c0-14.336 11.264-25.6 25.6-25.6s25.6 11.264 25.6 25.6v46.08c0 14.336-11.264 25.6-25.6 25.6zm136.704-57.344c-6.656 0-13.312-2.56-18.432-7.68l-32.768-33.28c-9.728-10.24-9.728-26.112.512-36.352 10.24-9.728 26.112-9.728 36.352.512l32.768 33.28c9.728 10.24 9.728 26.112-.512 36.352-5.12 4.608-11.264 7.168-17.92 7.168zm56.32-138.752h-46.592c-14.336 0-25.6-11.264-25.6-25.6s11.264-25.6 25.6-25.6h46.592c14.336 0 25.6 11.264 25.6 25.6s-11.264 25.6-25.6 25.6zm-90.624-103.936c-6.656 0-13.312-2.56-17.92-7.68-10.24-10.24-10.24-26.112 0-36.352l32.768-32.768c10.24-10.24 26.112-10.24 36.352 0s10.24 26.112 0 36.352l-32.768 32.768c-5.12 5.12-11.776 7.68-18.432 7.68z"/></svg>