<svg class="icon" viewBox="0 0 1024 1024" xmlns="http://www.w3.org/2000/svg" width="200" height="200"><defs><style/></defs><path d="M213.333 298.667H128a42.667 42.667 0 0 1 0-85.334h85.333a42.667 42.667 0 0 1 0 85.334zm682.667 0H384a42.667 42.667 0 0 1 0-85.334h512a42.667 42.667 0 0 1 0 85.334zm-682.667 256H128a42.667 42.667 0 0 1 0-85.334h85.333a42.667 42.667 0 0 1 0 85.334zm682.667 0H384a42.667 42.667 0 0 1 0-85.334h512a42.667 42.667 0 0 1 0 85.334zm-682.667 256H128a42.667 42.667 0 0 1 0-85.334h85.333a42.667 42.667 0 0 1 0 85.334zm682.667 0H384a42.667 42.667 0 0 1 0-85.334h512a42.667 42.667 0 0 1 0 85.334z"/></svg>