<svg class="icon" viewBox="0 0 1024 1024" xmlns="http://www.w3.org/2000/svg" width="200" height="200"><defs><style/></defs><path d="M677.7 830.8H292.2c-47.7.2-93.5-18.7-127.2-52.4s-52.6-79.5-52.4-127.2c0-99.8 79.8-179.6 179.6-179.6h438.9c26.5.3 52.1-10.2 70.8-28.9 18.8-18.8 29.2-44.3 28.9-70.8.3-26.5-10.2-52.1-28.9-70.8-18.8-18.8-44.3-29.2-70.8-28.9H345.7c-15.8 47.3-59.6 79.8-113.3 79.8-67.8 0-119.7-51.9-119.7-119.7 0-67.8 51.9-119.7 119.7-119.7 53.7 0 97.5 32.6 113.3 79.8h385.5c47.7-.2 93.5 18.7 127.2 52.4S911 324.3 910.8 372c.2 47.7-18.7 93.5-52.4 127.2s-79.5 52.6-127.2 52.4h-439c-26.5-.3-52.1 10.2-70.8 28.9-18.8 18.8-29.2 44.3-28.9 70.8-.3 26.5 10.2 52.1 28.9 70.8 18.8 18.8 44.3 29.2 70.8 28.9h385.5c15.8-47.3 59.6-79.8 113.3-79.8 67.8 0 119.7 51.9 119.7 119.7 0 67.8-51.9 119.7-119.7 119.7-53.7 0-97.5-32.5-113.3-79.8zm0 0"/></svg>