<svg class="icon" viewBox="0 0 1024 1024" xmlns="http://www.w3.org/2000/svg" width="200" height="200"><defs><style/></defs><path d="M874.667 64c0-36.267-27.734-64-64-64H213.333c-36.266 0-64 27.733-64 64v896c0 36.267 27.734 64 64 64h597.334c36.266 0 64-27.733 64-64V64zM832 955.733c0 12.8-17.067 25.6-27.733 25.6H206.933c-12.8 0-14.933-14.933-14.933-25.6V810.667h640v145.066zM832 768H192V59.733c0-12.8 2.133-17.066 14.933-17.066h597.334c10.666 0 27.733 4.266 27.733 17.066V768z"/><path d="M441.6 917.333h128c12.8 0 21.333-8.533 21.333-21.333s-8.533-21.333-21.333-21.333h-128c-12.8 0-21.333 8.533-21.333 21.333s8.533 21.333 21.333 21.333z"/></svg>