<svg class="icon" viewBox="0 0 1024 1024" xmlns="http://www.w3.org/2000/svg" width="200" height="200"><defs><style/></defs><path d="M672 128H256c-38.4 0-64 25.6-64 64v640c0 38.4 25.6 64 64 64h512c38.4 0 64-25.6 64-64V288L672 128zm128 691.2c0 25.6-19.2 51.2-51.2 51.2h-480c-25.6 0-51.2-19.2-51.2-51.2V204.8c0-25.6 19.2-51.2 51.2-51.2H640V256c0 38.4 25.6 64 64 64h96v499.2zM716.8 288c-25.6 0-51.2-19.2-51.2-51.2V160l128 128h-76.8z"/><path d="M691.2 416H332.8c-6.4 0-12.8-6.4-12.8-12.8 0-12.8 6.4-19.2 12.8-19.2h352c12.8 0 19.2 6.4 19.2 19.2 0 6.4-6.4 12.8-12.8 12.8zM691.2 563.2H332.8c-6.4 0-12.8-12.8-12.8-19.2 0-6.4 6.4-12.8 12.8-12.8h352c6.4 0 12.8 6.4 12.8 12.8 6.4 6.4 0 19.2-6.4 19.2zM499.2 704H332.8c-6.4 0-12.8-6.4-12.8-19.2 0-6.4 6.4-12.8 12.8-12.8h160c6.4 0 12.8 6.4 12.8 12.8 6.4 12.8 0 19.2-6.4 19.2z"/></svg>