<svg class="icon" viewBox="0 0 1024 1024" xmlns="http://www.w3.org/2000/svg" width="200" height="200"><defs><style/></defs><path d="M896.343 639.794V159.588s-73.728-22.25-118.26-66.109c-44.53-43.859-74.046-93.48-74.046-93.48H319.963s-29.516 49.621-74.046 93.48c-44.531 43.859-118.26 66.109-118.26 66.109v480.205s-1.28 34.702 25.708 89.35c40.818 82.66 201.622 167.272 262.416 198.773 48.724 25.259 96.04 96.041 96.04 96.041l.18-.34c.116.218.178.34.178.34s47.317-70.782 96.041-96.041c60.794-31.502 221.598-116.114 262.416-198.772 26.987-54.648 25.707-89.35 25.707-89.35zM421.255 849.163c-35.151-21.13-174.73-82.115-205.015-158.915-13.093-33.231-22.57-59.29-22.57-59.29l-.128-23.21h169.224c11.59 0 21-9.412 21-21V372.638c0-11.589-9.41-21.001-21-21.001H340.74c-11.588 0-21 9.412-21 21.001v171.08H193.19l-1.504-288.123h288.123v640.307c-.001 0-23.402-25.612-58.554-46.74zM830.81 543.719H704.26V372.64c0-11.589-9.412-21.001-21-21.001h-22.026c-11.59 0-21 9.412-21 21.001v214.107c0 11.59 9.41 21 21 21h169.224l-.128 23.21s-9.476 26.06-22.57 59.29c-30.285 76.8-169.865 137.787-205.015 158.916-35.152 21.13-58.553 46.74-58.553 46.74V255.596h288.123L830.81 543.72zM191.685 191.602s85.508-20.905 127.67-65.405C352.105 91.655 366.48 63.1 366.48 63.1H657.52s14.374 28.556 47.125 63.098c42.162 44.5 127.67 65.405 127.67 65.405H191.685z"/></svg>