<svg class="icon" viewBox="0 0 1024 1024" xmlns="http://www.w3.org/2000/svg" width="200" height="200"><defs><style/></defs><path d="M192.402 273.2c-69.475 0-126 56.525-126 126s56.525 126 126 126 126-56.525 126-126-56.525-126-126-126zm0 175.2c-27.129 0-49.2-22.071-49.2-49.2s22.071-49.2 49.2-49.2 49.2 22.071 49.2 49.2-22.075 49.2-49.2 49.2zM192.402 242c23.861 0 43.2-19.339 43.2-43.2v-92.4c0-23.861-19.339-43.2-43.2-43.2s-43.2 19.339-43.2 43.2v92.4c0 23.861 19.339 43.2 43.2 43.2zM192.402 557.6c-23.861 0-43.2 19.339-43.2 43.2V920c0 23.861 19.339 43.2 43.2 43.2s43.2-19.339 43.2-43.2V600.8c0-23.861-19.344-43.2-43.2-43.2zM516.224 389.216c-69.471 0-125.995 56.525-125.995 126s56.52 126 125.995 126c69.48 0 126-56.52 126-126s-56.52-126-126-126zm0 175.2c-27.125 0-49.195-22.071-49.195-49.2s22.071-49.2 49.195-49.2c27.134 0 49.2 22.071 49.2 49.2s-22.066 49.2-49.2 49.2zM516.229 356c23.856 0 43.2-19.339 43.2-43.2V105.2c0-23.861-19.339-43.2-43.2-43.2-23.861 0-43.2 19.339-43.2 43.2v207.6c0 23.861 19.344 43.2 43.2 43.2zM516.229 676.4c-23.861 0-43.2 19.339-43.2 43.2v199.2c0 23.861 19.339 43.2 43.2 43.2 23.856 0 43.2-19.339 43.2-43.2V719.6c0-23.861-19.339-43.2-43.2-43.2zM840.061 499.083c-69.48 0-126 56.52-126 126 0 69.475 56.52 125.995 126 125.995s126-56.52 126-125.995c0-69.48-56.525-126-126-126zm0 175.195c-27.129 0-49.2-22.071-49.2-49.195 0-27.129 22.071-49.2 49.2-49.2s49.2 22.071 49.2 49.2c0 27.125-22.071 49.195-49.2 49.195zM840.061 466.4c23.861 0 43.2-19.339 43.2-43.2v-318c0-23.861-19.339-43.2-43.2-43.2s-43.2 19.339-43.2 43.2v318c0 23.861 19.339 43.2 43.2 43.2zM840.061 786.8c-23.861 0-43.2 19.339-43.2 43.2v88.8c0 23.861 19.339 43.2 43.2 43.2s43.2-19.339 43.2-43.2V830c0-23.861-19.344-43.2-43.2-43.2z"/></svg>