<svg class="icon" viewBox="0 0 1024 1024" xmlns="http://www.w3.org/2000/svg" width="200" height="200"><defs><style/></defs><path d="M617.92 688H448v-80h288a48 48 0 0 0 48-48V432a48 48 0 0 0-48-48H448v-80h288a48 48 0 0 0 48-48V128a48 48 0 0 0-48-48H128a48 48 0 0 0-48 48v128a48 48 0 0 0 48 48h288v80H128a48 48 0 0 0-48 48v128a48 48 0 0 0 48 48h288v80H128a48 48 0 0 0-48 48v128a48 48 0 0 0 48 48h513.12a191.04 191.04 0 0 1-23.2-224zM672 160a32 32 0 1 1-32 32 32 32 0 0 1 32-32zm-496 64a16 16 0 0 1-32 0v-64a16 16 0 0 1 32 0zm64 0a16 16 0 0 1-32 0v-64a16 16 0 0 1 32 0zm64 0a16 16 0 0 1-32 0v-64a16 16 0 0 1 32 0zm80 0a32 32 0 0 1-32-32 32 32 0 0 1 32-32h160a32 32 0 0 1 32 32 32 32 0 0 1-32 32zm288 240a32 32 0 1 1-32 32 32 32 0 0 1 32-32zm-496 64a16 16 0 0 1-32 0v-64a16 16 0 0 1 32 0zm64 0a16 16 0 0 1-32 0v-64a16 16 0 0 1 32 0zm64 0a16 16 0 0 1-32 0v-64a16 16 0 0 1 32 0zm80 0a32 32 0 0 1-32-32 32 32 0 0 1 32-32h160a32 32 0 0 1 32 32 32 32 0 0 1-32 32zM176 832a16 16 0 0 1-32 0v-64a16 16 0 0 1 32 0zm64 0a16 16 0 0 1-32 0v-64a16 16 0 0 1 32 0zm64 0a16 16 0 0 1-32 0v-64a16 16 0 0 1 32 0zm262.56-9.44A32 32 0 0 1 544 832H384a32 32 0 0 1-32-32 32 32 0 0 1 32-32h160a32 32 0 0 1 32 32 32 32 0 0 1-9.44 22.56zM816 752a16 16 0 0 0-16-16h-48v32h48a16 16 0 0 0 16-16zm0 48h-64v32h64a16 16 0 0 0 0-32z"/><path d="M944 768a160 160 0 1 0-256 144 157.76 157.76 0 0 0 64 28.8A160 160 0 0 0 944 784v-16zm-128 96v16a16 16 0 0 1-32 0v-16h-16v16a16 16 0 0 1-32 0v-16h-16a16 16 0 0 1 0-32v-96a16 16 0 0 1 0-32h16v-16a16 16 0 0 1 32 0v16h16v-16a16 16 0 0 1 32 0v18.88A48 48 0 0 1 848 752a48.96 48.96 0 0 1-6.08 23.52A48 48 0 0 1 816 864z"/></svg>