<svg class="icon" viewBox="0 0 1024 1024" xmlns="http://www.w3.org/2000/svg" width="200" height="200"><defs><style/></defs><path d="M927.289 341.333l39.822-39.822L819.2 153.6l-34.133-39.822L358.4 540.444C329.956 523.378 295.822 512 256 512c-108.089 0-199.111 91.022-199.111 199.111S147.91 910.222 256 910.222s199.111-91.022 199.111-199.11c0-51.2-22.755-96.712-51.2-136.534L614.4 364.088 756.622 512l39.822-39.822-147.91-147.911 130.844-130.845 147.91 147.911zM256 853.333c-79.644 0-142.222-62.577-142.222-142.222S176.356 568.89 256 568.89s142.222 62.578 142.222 142.222S335.644 853.333 256 853.333z"/></svg>