<svg class="icon" viewBox="0 0 1024 1024" xmlns="http://www.w3.org/2000/svg" width="200" height="200"><defs><style/></defs><path d="M157.538 1014c-37.918 0-68.768-30.85-68.768-68.77V551.384c0-37.92 30.85-68.77 68.768-68.77H866.46c37.92 0 68.77 30.85 68.77 68.77V945.23c0 37.92-30.85 68.77-68.77 68.77H157.538zm-10-58.77H876.46V541.384H147.538V955.23z"/><path d="M512 1014c-16.204 0-29.384-13.182-29.384-29.384V787.692c0-16.202 13.182-29.382 29.384-29.382s29.384 13.182 29.384 29.382v196.924c0 16.202-13.18 29.384-29.384 29.384zm157.54-.018c-16.196 0-29.376-13.176-29.384-29.372V787.69c0-16.202 13.182-29.382 29.384-29.382s29.384 13.182 29.384 29.382v196.924c-.008 16.188-13.184 29.362-29.372 29.368h-.012zm-315.08 0c-16.196 0-29.376-13.176-29.384-29.372V787.69c0-16.202 13.182-29.382 29.384-29.382 16.202 0 29.384 13.182 29.384 29.382v196.924c-.006 16.188-13.182 29.362-29.372 29.368h-.012zM112.088 541.384C55.796 541.384 10 492.868 10 433.23c0-59.636 45.796-108.154 102.088-108.154h281.756c16.2.006 29.376 13.194 29.368 29.396-.008 16.19-13.184 29.366-29.374 29.372h-281.75c-23.886 0-43.32 22.154-43.32 49.384s19.432 49.384 43.32 49.384h799.824c23.886 0 43.318-22.154 43.318-49.384s-19.432-49.384-43.318-49.384H630.154a29.2 29.2 0 0 1-20.77-8.614 29.194 29.194 0 0 1-8.598-20.782c.008-16.188 13.184-29.366 29.372-29.372h281.754c56.292 0 102.088 48.518 102.088 108.154 0 59.636-45.796 108.154-102.088 108.154H112.088z"/><path d="M600.77 349.424v-231.27c0-27.23-22.154-49.384-49.384-49.384h-78.77c-27.23 0-49.384 22.154-49.384 49.384v226.308h-58.768V118.154C364.462 58.518 412.98 10 472.616 10h78.77c59.636 0 108.154 48.518 108.154 108.154v231.27h-58.77z"/></svg>