<svg class="icon" viewBox="0 0 1025 1024" xmlns="http://www.w3.org/2000/svg" width="200.195" height="200"><defs><style/></defs><path d="M510.616 1024C234.264 1024 5.208 799.168.088 522.688-5.096 240.384 220.248 6.016 502.424.064L513.432 0c276.416 0 505.408 224.832 510.528 501.248 5.248 282.176-220.096 516.672-502.4 522.624l-10.944.128zm2.816-957.056l-9.536.192c-245.376 5.12-441.344 208.96-436.8 454.272 4.416 240.128 203.328 435.584 443.456 435.584l9.6-.128c245.376-5.184 441.408-208.96 436.8-454.336-4.416-240.192-203.328-435.584-443.52-435.584z"/><path d="M540.248 621.952l85.76 85.76-43.84 43.904 210.24 40.704-40.704-210.24-43.904 43.84-85.76-85.76zM483.8 401.92l-85.76-85.76 43.84-43.904-210.24-40.704 40.704 210.24 43.904-43.84 85.76 85.76zM402.008 540.16l-85.76 85.76-43.904-43.84-40.704 210.24 210.24-40.704-43.84-43.904 85.76-85.76zM622.04 483.712l85.76-85.76 43.904 43.84 40.704-210.24-210.24 40.704 43.84 43.904-85.76 85.76z"/></svg>