<svg class="icon" viewBox="0 0 1024 1024" xmlns="http://www.w3.org/2000/svg" width="200" height="200"><defs><style/></defs><path d="M637.963 882.737V769.95l-259.814.3v114.886l-52.536 28.287s-17.43 29.785 8.402 28.858h346.884s24.03-12.003 12.03-24.058c-12.031-12.03-54.966-35.486-54.966-35.486zM868.32 76.592H147.493c-47.763 0-86.495 38.787-86.495 86.63v490.914c0 47.843 38.733 85.729 86.495 85.729H868.32c47.762 0 86.496-37.886 86.496-85.729V163.22c0-47.841-38.734-86.628-86.496-86.628zM521.327 713.38c-4.228 1.364-9.628-6.9-14.32-6.9-7.801 0-14.24 6.955-20.568 3.3-13.01-7.446-23.595-17.892-23.595-42.114 0-20.812 3.873-43.64 27.959-38.76 2.89-.626 8.62 14.403 11.702 14.403 5.265 0 15.739-13.502 20.403-11.784 4.283 1.609 11.866 2.946 15.412 5.755 4.392 3.492 14.62 13.311 10.556 16.176-12.385-.9-27.44.927-27.44 14.21 0 24.385 29.513 14.62 29.513 14.62s-1.908 21.601-29.622 31.094zm-16.12-88.129c0-9.028 16.229-18.956 16.229-18.956 10.801 17.156-16.23 18.956-16.23 18.956zm391.945-87.528c0 31.885-25.805 58.643-57.665 58.643H176.325c-31.832 0-57.664-26.757-57.664-58.643V192.106c0-31.913 25.832-58.67 57.664-58.67h663.162c31.86 0 57.665 26.757 57.665 58.67v345.616z"/></svg>