<svg class="icon" viewBox="0 0 1024 1024" xmlns="http://www.w3.org/2000/svg" width="200" height="200"><defs><style/></defs><path d="M353.28 535.893A213.333 213.333 0 1 0 139.947 322.56 213.333 213.333 0 0 0 353.28 535.893zm0-372.053a157.867 157.867 0 1 1-155.307 157.44A156.587 156.587 0 0 1 353.28 163.84zm454.4 377.6A153.173 153.173 0 1 0 704 546.987a235.52 235.52 0 0 0-122.88 85.333A331.52 331.52 0 0 0 21.333 872.96v44.373h661.334V872.96a341.333 341.333 0 0 0-5.12-59.307h321.706v-27.306a111.787 111.787 0 0 0 0-11.947A236.8 236.8 0 0 0 807.68 541.44zM651.093 398.507a97.28 97.28 0 1 1 97.28 98.133 98.133 98.133 0 0 1-97.28-98.133zM77.653 860.16a275.627 275.627 0 0 1 550.4 0zm585.814-103.68a334.507 334.507 0 0 0-42.667-81.493 178.347 178.347 0 0 1 325.973 81.493z"/></svg>