<svg class="icon" viewBox="0 0 1024 1024" xmlns="http://www.w3.org/2000/svg" width="200" height="200"><defs><style/></defs><path d="M938.88 703.968h-64V543.973c0-17.667-14.33-31.992-32.002-31.992H554.896V319.988h63.989c35.204 0 64.004-28.8 64.004-63.999V63.996c0-35.199-28.8-63.996-64.004-63.996h-191.99c-35.201 0-63.996 28.797-63.996 63.996V255.99c0 35.2 28.795 64 63.996 64h63.996v191.992H202.903c-17.671 0-32.002 14.325-32.002 31.992v159.995h-63.994c-35.2 0-63.999 28.8-63.999 64V959.96c0 35.204 28.797 64.004 64 64.004h191.991c35.2 0 64-28.8 64-64.004V767.968c0-35.199-28.8-63.999-64-63.999H234.9V575.976h575.976v127.993h-63.989c-35.199 0-63.999 28.8-63.999 64V959.96c0 35.204 28.8 64.004 63.999 64.004h191.991c35.2 0 64-28.8 64-64.004V767.968c0-35.2-28.8-64-63.999-64zM426.894 63.996h191.989V255.99h-191.99V63.996zM298.899 959.96H106.907V767.967H298.9V959.96zm639.98 0H746.887V767.967h191.991V959.96z"/></svg>