<svg class="icon" viewBox="0 0 1024 1024" xmlns="http://www.w3.org/2000/svg" width="200" height="200"><defs><style/></defs><path d="M966.4 883.2h-64V460.8c0-6.4-6.4-12.8-6.4-12.8L748.8 300.8V153.6c0-19.2-12.8-32-32-32s-32 12.8-32 32v83.2L537.6 89.6c-12.8-12.8-32-12.8-44.8 0L128 448c-6.4 6.4-6.4 12.8-6.4 19.2v422.4h-64c-19.2 0-32 12.8-32 32s12.8 32 32 32h915.2c19.2 0 32-12.8 32-32s-19.2-38.4-38.4-38.4zM512 153.6l185.6 185.6L800 441.6H224l288-288zm332.8 729.6H179.2V505.6h659.2v377.6z"/><path d="M448 326.4a64 64 0 1 0 128 0 64 64 0 1 0-128 0z"/></svg>