<svg class="icon" viewBox="0 0 1024 1024" xmlns="http://www.w3.org/2000/svg" width="200" height="200"><defs><style/></defs><path d="M959.936 50.094a52.29 52.29 0 0 0-48.75-5.29L512 204.512 112.814 44.804a52.35 52.35 0 0 0-71.749 48.618v669.766a52.374 52.374 0 0 0 32.855 48.594L491.61 978.87s8.589 2.754 10.171 3.068a51.698 51.698 0 0 0 20.341 0c1.583-.314 10.17-3.177 10.17-3.177l417.68-167.052a52.314 52.314 0 0 0 32.95-48.593V93.422a52.338 52.338 0 0 0-22.95-43.328zm-28.204 711.572L551.245 913.173V262.37l380.487-151.506zM859.32 547.083L649.979 630.9v56.494L859.33 603.6zm0-217.36l-209.34 83.73v54.755l209.352-83.72zm-378.93 586.76L97.184 764.455V113.63L480.39 265.74zM372.03 424.964l-209.34-83.816v56.518l209.34 83.803zm0 219.112L162.676 560.37v54.73l209.353 83.743zm0 0"/><path d="M512 992a62.666 62.666 0 0 1-11.922-1.208c-1.74-.338-7.054-1.993-11.21-3.334l-.603-.217L70.55 820.165a61.18 61.18 0 0 1-38.544-57.001V93.422a61.41 61.41 0 0 1 84.154-57.037l395.828 158.367L907.816 36.385a61.422 61.422 0 0 1 84.166 57.037v669.754a61.132 61.132 0 0 1-38.653 57L535.397 987.266l-.254.085c-6.04 2.029-9.868 3.188-11.293 3.478A62.243 62.243 0 0 1 512 992zm-17.297-21.658c3.624 1.208 7.996 2.5 8.938 2.718a42.82 42.82 0 0 0 16.657 0c1.063-.266 5.351-1.643 8.89-2.814L946.613 803.35a43.098 43.098 0 0 0 27.263-40.187V93.422a43.243 43.243 0 0 0-19.025-35.839 43.134 43.134 0 0 0-40.295-4.36L512 214.272 109.444 53.21a43.291 43.291 0 0 0-59.32 40.21v669.767a43.134 43.134 0 0 0 27.178 40.187zm-5.254-40.525L88.173 770.641V100.258L489.45 259.544zM106.292 758.308L471.33 903.135V271.852L106.292 126.965zM542.185 926.46V256.234L940.791 97.516v670.286zm18.119-657.99v631.32l362.369-144.272V124.223zM381.1 712.227l-227.47-91.003v-74.237l227.47 90.942zM171.748 608.964l191.234 76.496v-35.259l-191.234-76.447zm469.159 91.8v-76l227.47-91.064v76.025zm18.118-63.753v36.998l191.234-76.544v-36.998zM381.1 494.866l-227.47-91.063v-76.037l227.47 91.063zM171.748 391.543l191.234 76.556v-37.01l-191.234-76.556zm469.17 90.048v-74.273l227.46-90.967v74.261zm18.12-62.001v35.234l191.234-76.472v-35.234z"/></svg>