<svg class="icon" viewBox="0 0 1024 1024" xmlns="http://www.w3.org/2000/svg" width="200" height="200"><defs><style/></defs><path d="M128 128a64 64 0 0 0-64 64v704a64 64 0 0 0 64 64h768a64 64 0 0 0 64-64V192a64 64 0 0 0-64-64H128zm0-64h768a128 128 0 0 1 128 128v704a128 128 0 0 1-128 128H128A128 128 0 0 1 0 896V192A128 128 0 0 1 128 64z"/><path d="M960 288a32 32 0 1 1 0 64H64a32 32 0 0 1 0-64h896zM288 32a32 32 0 0 1 64 0v128a32 32 0 0 1-64 0V32zm384 0a32 32 0 1 1 64 0v128a32 32 0 1 1-64 0V32zm160 480a32 32 0 1 1 0 64H448a32 32 0 0 1 0-64h384zm-534.912-35.136a32 32 0 0 1 45.888 44.672l-74.688 76.8a32 32 0 0 1-45.888 0l-53.312-54.912a32 32 0 1 1 45.888-44.608l30.4 31.296 51.712-53.248zM832 704a32 32 0 1 1 0 64H448a32 32 0 1 1 0-64h384zm-534.912-35.136a32 32 0 1 1 45.888 44.672l-74.688 76.8a32 32 0 0 1-45.888 0l-53.312-54.912a32 32 0 0 1 45.888-44.608l30.4 31.296 51.712-53.248z"/></svg>