<svg class="icon" viewBox="0 0 1024 1024" xmlns="http://www.w3.org/2000/svg" width="200" height="200"><defs><style/></defs><path d="M585.5 874.9c-10 0-20.2-2.5-29.5-7.9-9.6-5.5-12.9-17.7-7.4-27.3 5.5-9.6 17.7-12.9 27.3-7.4 9.3 5.3 21.2 2.1 26.5-7.2l25.7-44.9c4.1-7.1 12.2-11.1 20.3-9.8 22.6 3.4 45.4 3.3 67.7-.2 8.1-1.3 16.2 2.6 20.4 9.7l26 44.7c2.6 4.5 6.8 7.7 11.8 9 5 1.3 10.3.6 14.7-2l85.4-49.7c9.3-5.4 12.4-17.3 7-26.6l-26.1-44.8c-4.1-7.1-3.5-16 1.6-22.5 8-10.1 14.2-19 19.3-27.9 5.1-8.9 9.7-18.7 14.4-30.8 3-7.7 10.4-12.7 18.6-12.8l51.8-.2c5.2 0 10.1-2.1 13.7-5.7s5.7-8.6 5.7-13.8l-.3-98.8c0-5.2-2.1-10.1-5.7-13.7-3.7-3.6-8.5-5.7-13.7-5.7h-.1l-51.7.2h-.1c-8.2 0-15.6-5-18.6-12.7-8.3-21-19.7-40.7-34.1-58.5-5.2-6.4-5.9-15.3-1.8-22.5l25.7-44.9c5.3-9.3 2.1-21.2-7.2-26.5l-85.7-49.2c-9.3-5.3-21.2-2.1-26.5 7.2l-25.7 44.9c-4.1 7.1-12.2 11-20.3 9.8-22.6-3.4-45.4-3.3-67.7.2-8.1 1.3-16.2-2.6-20.4-9.7l-26-44.7c-2.6-4.5-6.8-7.7-11.8-9-5-1.3-10.3-.6-14.7 2-9.5 5.6-21.8 2.3-27.3-7.2-5.6-9.5-2.3-21.8 7.2-27.3 13.7-8 29.7-10.1 45.1-6.1 15.3 4.1 28.2 13.9 36.2 27.6l19.3 33.2c17.4-1.8 34.9-1.8 52.4-.1l19.1-33.4c16.3-28.4 52.7-38.3 81.1-22l85.7 49.2c28.4 16.3 38.3 52.7 22 81.1l-19.1 33.4c10.3 14.3 19.1 29.4 26.4 45.3l38.4-.1h.2c15.8 0 30.7 6.1 41.9 17.3 11.3 11.2 17.5 26.1 17.5 42l.3 98.8c0 15.9-6.1 30.8-17.3 42.1-11.2 11.3-26.1 17.5-42 17.5l-38.5.1c-3.7 8.5-7.6 16.2-11.7 23.5-4.2 7.3-8.8 14.4-14.3 22l19.3 33.3c16.5 28.3 6.8 64.8-21.5 81.2L809 866.3c-13.7 8-29.7 10.1-45.1 6.1-15.3-4.1-28.2-13.9-36.2-27.6l-19.3-33.2c-17.4 1.8-34.9 1.8-52.4.1L637.1 845c-10.9 19.1-31 29.9-51.6 29.9z"/><path d="M681.6 638.6c-15.6 0-31.1-4.1-44.7-11.9-20.9-12-35.8-31.3-42.1-54.5-6.3-23.2-3.2-47.5 8.8-68.3 16-27.9 45.9-45.2 78.1-45.2 15.6 0 31.1 4.1 44.7 11.9 43.1 24.7 58 79.8 33.3 122.9-15.9 27.7-45.9 45.1-78.1 45.1zm.1-140.1c-17.9 0-34.6 9.6-43.4 25.1-6.6 11.6-8.4 25.1-4.9 38s11.8 23.7 23.4 30.3c7.6 4.3 16.2 6.6 24.8 6.6 17.9 0 34.6-9.6 43.4-25.1 13.7-23.9 5.4-54.5-18.5-68.3-7.5-4.3-16.1-6.6-24.8-6.6zm-366 10.3c-98.4 0-178.5-80.1-178.5-178.5s80.1-178.5 178.5-178.5 178.5 80.1 178.5 178.5-80.1 178.5-178.5 178.5zm0-317c-76.4 0-138.5 62.1-138.5 138.5s62.1 138.5 138.5 138.5 138.5-62.1 138.5-138.5-62.1-138.5-138.5-138.5zm107.4 717c-.1 0 0 0 0 0-8.2 0-16.3-1-24.2-2.9l-249.1-61c-5.5-1.3-10.2-5-12.9-10-2.7-5-3.1-10.9-1.2-16.2l42.5-118.6c3.6-10 14.3-15.4 24.5-12.4l131 38.6V602.2c0-43.1 40.1-78.2 89.4-78.2s89.4 35.1 89.4 78.2c0 .6.1 59.6-.2 119-.6 123.4-2.1 127.7-3.7 132.3-11.6 33.1-45.9 55.3-85.5 55.3zm-242.3-97.4l227.5 55.7c4.8 1.2 9.8 1.8 14.7 1.8 21.6 0 40.8-11.1 47.2-27.1 1.9-19 2.4-155.8 2.2-239.6 0-21.1-22.2-38.2-49.4-38.2s-49.4 17.1-49.4 38.2v150.9c0 6.3-3 12.2-8 16S354 774 348 772.3l-138.5-40.9-28.7 80zM49.7 859.8c-2.5 0-5-.5-7.4-1.4-10.3-4.1-15.2-15.7-11.1-26l75.5-188.7c4.1-10.3 15.7-15.2 26-11.1s15.2 15.7 11.1 26L68.2 847.3c-3.1 7.8-10.6 12.5-18.5 12.5zM210.9 905H20c-11 0-20-9-20-20s9-20 20-20h190.9c11 0 20 9 20 20s-9 20-20 20z"/></svg>