<svg class="icon" viewBox="0 0 1024 1024" xmlns="http://www.w3.org/2000/svg" width="200" height="200"><defs><style/></defs><path d="M691.2 1024H76.8C34.304 1024 0 989.696 0 947.2V230.4c0-42.496 34.304-76.8 76.8-76.8h614.4c42.496 0 76.8 34.304 76.8 76.8v76.8c0 14.336-11.264 25.6-25.6 25.6s-25.6-11.264-25.6-25.6v-76.8c0-14.336-11.264-25.6-25.6-25.6H76.8c-14.336 0-25.6 11.264-25.6 25.6v716.8c0 14.336 11.264 25.6 25.6 25.6h614.4c14.336 0 25.6-11.264 25.6-25.6v-76.8c0-14.336 11.264-25.6 25.6-25.6s25.6 11.264 25.6 25.6v76.8c0 42.496-34.304 76.8-76.8 76.8z"/><path d="M460.8 384H153.6c-14.336 0-25.6-11.264-25.6-25.6s11.264-25.6 25.6-25.6h307.2c14.336 0 25.6 11.264 25.6 25.6S475.136 384 460.8 384zM358.4 537.6H153.6c-14.336 0-25.6-11.264-25.6-25.6s11.264-25.6 25.6-25.6h204.8c14.336 0 25.6 11.264 25.6 25.6s-11.264 25.6-25.6 25.6zm0 153.6H153.6c-14.336 0-25.6-11.264-25.6-25.6s11.264-25.6 25.6-25.6h204.8c14.336 0 25.6 11.264 25.6 25.6s-11.264 25.6-25.6 25.6zm102.4 153.6H153.6c-14.336 0-25.6-11.264-25.6-25.6s11.264-25.6 25.6-25.6h307.2c14.336 0 25.6 11.264 25.6 25.6s-11.264 25.6-25.6 25.6zm537.6-512c-14.336 0-25.6-11.264-25.6-25.6V76.8c0-14.336-11.264-25.6-25.6-25.6H486.4c-14.336 0-25.6 11.264-25.6 25.6v102.4c0 14.336-11.264 25.6-25.6 25.6s-25.6-11.264-25.6-25.6V76.8c0-42.496 34.304-76.8 76.8-76.8h460.8c42.496 0 76.8 34.304 76.8 76.8v230.4c0 14.336-11.264 25.6-25.6 25.6zm.512 308.224l-27.136-18.944c-23.552-16.384-23.552-50.688 0-67.072l27.136-18.944c35.84-25.088 12.8-81.408-30.72-73.728l-32.256 5.632c-28.16 5.12-52.736-19.456-47.616-47.616l5.632-32.256c7.68-43.008-48.64-66.56-73.728-30.72l-18.944 27.136c-16.384 23.552-50.688 23.552-67.072 0l-18.944-27.136c-25.088-35.84-81.408-12.8-73.728 30.72l5.632 32.256c5.12 28.16-19.456 52.736-47.616 47.616l-32.256-5.632c-43.008-7.68-66.56 48.64-30.72 73.728l27.136 18.944c23.552 16.384 23.552 50.688 0 67.072l-27.136 18.944c-35.84 25.088-12.8 81.408 30.72 73.728l32.256-5.632c28.16-5.12 52.736 19.456 47.616 47.616l-5.632 32.256c-7.68 43.008 48.64 66.56 73.728 30.72l18.944-27.136c16.384-23.552 50.688-23.552 67.072 0l18.944 27.136c25.088 35.84 81.408 12.8 73.728-30.72l-5.632-32.256c-5.12-28.16 19.456-52.736 47.616-47.616l32.256 5.632c43.52 8.192 67.072-48.64 30.72-73.728zM768 704c-63.488 0-115.2-51.712-115.2-115.2S704.512 473.6 768 473.6s115.2 51.712 115.2 115.2S831.488 704 768 704z"/></svg>