<svg class="icon" viewBox="0 0 1024 1024" xmlns="http://www.w3.org/2000/svg" width="200" height="200"><defs><style/></defs><path d="M682.297 904.79c0-20.717 13.498-34.266 34.573-34.266h221.72c8.09 0 17.014-6.877 17.014-16.809V85.635c0-8.242-7.56-17.133-17.013-17.133H324.62c-9.59 0-17.405 8.362-17.405 17.133v204.81c0 20.648-17.27 34.249-34.3 34.249-17.03 0-34.01-13.584-34.01-34.249V85.635C238.889 40.243 278.462.312 324.622.107c30.784-.136 235.424-.136 613.969 0 46.143.222 85.289 40.153 85.289 85.528v768.08c-.12 45.307-39.215 84.726-85.29 84.948H719.277c-21.058 0-36.98-13.14-36.98-33.873zM405.713 479.283c73.378 70.033 73.378 183.257 0 253.273-72.661 69.624-190.97 70.119-264.263 1.058l-1.127-1.058c-73.531-70.136-73.31-183.667.512-253.546 35.12-33.26 82.593-52.03 132.183-52.27 49.863-.136 97.695 18.789 132.695 52.56zm-132.678 32.764c-56.654.239-102.422 46.074-102.388 102.49a103.668 103.668 0 0 0 29.864 72.422 103.31 103.31 0 0 0 72.524 29.864 101.688 101.688 0 0 0 72.133-29.864 102.303 102.303 0 0 0 30.255-72.422 100.784 100.784 0 0 0-30.255-72.235 100.374 100.374 0 0 0-72.133-30.255zM38.09 1023.987A37.935 37.935 0 0 1 .001 986.221V853.374a37.013 37.013 0 0 1 12.918-28.362 335.423 335.423 0 0 1 120.084-77.985 549.311 549.311 0 0 1 132.507-30.034 38.02 38.02 0 0 1 41.484 34.095 37.866 37.866 0 0 1-32.867 40.973 506.291 506.291 0 0 0-114.503 25.238c-30.87 11.775-59.215 29.25-83.515 51.518v117.405a37.832 37.832 0 0 1-38.02 37.764zm471.019 0a37.798 37.798 0 0 1-38.805-38.533V868.442a257.3 257.3 0 0 0-83.498-51.33 494.534 494.534 0 0 0-113.514-25.137 37.73 37.73 0 0 1-34.214-41.023 37.85 37.85 0 0 1 42.798-33.805 545.783 545.783 0 0 1 131.841 29.914 333.716 333.716 0 0 1 119.487 77.73c8.089 7.218 12.747 17.474 12.85 28.259v132.387a37.679 37.679 0 0 1-36.945 38.515zm327.06-742.313c0 23.55-17.525 42.662-39.145 42.662H482.828c-21.62 0-39.146-19.113-39.146-42.662s17.525-42.662 39.146-42.662h314.195c21.62 0 39.146 19.113 39.146 42.662zm-17.064 187.711c0 23.55-16.928 42.662-37.815 42.662H652.144c-20.888 0-37.816-19.113-37.816-42.662s16.928-42.662 37.816-42.662h129.145c20.887 0 37.815 19.113 37.815 42.662zm-287.215 534.38c-8.737 17.645-30.733 25.17-49.146 16.808a37.593 37.593 0 0 1-.853-.392c-18.67-8.703-26.434-30.273-17.338-48.157l.239-.477 129.47-251.755c9.317-17.747 31.757-25.034 50.425-16.416 18.447 9.146 26.007 30.665 17.1 48.634l-129.88 251.755z"/></svg>