<svg class="icon" viewBox="0 0 1024 1024" xmlns="http://www.w3.org/2000/svg" width="200" height="200"><defs><style/></defs><path d="M960 696.576V113.792c0-31.424-28.672-56.96-64-56.96H128c-35.328 0-64 25.536-64 56.96v796.416c0 31.424 28.672 56.896 64 56.896h552.32L960 696.576zM128 0h768c70.72 0 128 50.944 128 113.792V718.72L708.48 1024H128C57.28 1024 0 973.056 0 910.208V113.792C0 50.944 57.28 0 128 0z"/><path d="M219.456 768a32 32 0 1 1 0-64H512a32 32 0 1 1 0 64H219.456zm0-224a32 32 0 1 1 0-64h512a32 32 0 1 1 0 64h-512zm0-224a32 32 0 1 1 0-64h585.088a32 32 0 0 1 0 64H219.52zM704 992h-64V752c0-62.528 54.144-112 119.552-112H992v64H759.552C728.256 704 704 726.144 704 752v240z"/></svg>